<?xml version="1.0" encoding="UTF-8"?>
<svg id="_레이어_2" data-name="레이어 2" xmlns="http://www.w3.org/2000/svg" viewBox="0 0 74 74">
  <defs>
    <style>
      .cls-1 {
        fill: #ac1c3f;
      }

      .cls-1, .cls-2 {
        stroke-width: 0px;
      }

      .cls-2 {
        fill: #ecd99b;
      }
    </style>
  </defs>
  <g id="Layer_1" data-name="Layer 1">
    <circle class="cls-2" cx="37" cy="37" r="37"/>
    <g>
      <path class="cls-1" d="M45.65,16.55h-17.29c-6.52,0-11.81,5.29-11.81,11.81v17.29c0,6.52,5.29,11.8,11.81,11.8h17.29c6.52,0,11.8-5.28,11.8-11.8v-17.29c0-6.52-5.28-11.81-11.8-11.81M53.69,45.95c0,4.33-3.51,7.84-7.84,7.84h-17.7c-4.32,0-7.84-3.51-7.84-7.84v-17.7c0-4.33,3.51-7.84,7.84-7.84h17.7c4.33,0,7.84,3.51,7.84,7.84v17.7Z"/>
      <path class="cls-1" d="M37,26.49c-5.86,0-10.61,4.75-10.61,10.61s4.75,10.61,10.61,10.61,10.62-4.75,10.62-10.61-4.76-10.61-10.62-10.61M37,43.98c-3.8,0-6.88-3.08-6.88-6.88s3.08-6.88,6.88-6.88,6.88,3.08,6.88,6.88-3.08,6.88-6.88,6.88"/>
      <path class="cls-1" d="M47.97,23.61c-1.36,0-2.47,1.11-2.47,2.47s1.11,2.47,2.47,2.47,2.47-1.11,2.47-2.47-1.11-2.47-2.47-2.47"/>
    </g>
  </g>
</svg>