<?xml version="1.0" encoding="UTF-8"?>
<svg id="_레이어_2" data-name="레이어 2" xmlns="http://www.w3.org/2000/svg" viewBox="0 0 74 74">
  <defs>
    <style>
      .cls-1 {
        fill: #ac1c3e;
      }

      .cls-1, .cls-2 {
        stroke-width: 0px;
      }

      .cls-2 {
        fill: #ecd99b;
      }
    </style>
  </defs>
  <g id="Layer_1" data-name="Layer 1">
    <circle class="cls-2" cx="37" cy="37" r="37"/>
    <g>
      <path class="cls-1" d="M38.6,18.01c-12.2,0-22.09,7.81-22.09,17.45,0,6.2,4.1,11.63,10.25,14.74l-2.08,7.77c-.08.24-.01.49.16.66.12.12.28.19.45.19.13,0,.26-.06.38-.15l8.95-6.05c1.3.19,2.63.29,3.98.29,12.2,0,22.1-7.81,22.1-17.45s-9.9-17.45-22.1-17.45"/>
      <g>
        <path class="cls-2" d="M24.26,32.7h-2.41c-.33,0-.62-.08-.85-.23-.24-.15-.38-.37-.44-.64-.01-.07-.03-.16-.04-.25,0-.35.13-.63.38-.82.25-.19.56-.29.94-.29h7.35c.33,0,.62.08.85.23.24.15.39.36.45.65.01.08.02.16.02.24,0,.36-.12.63-.37.83-.24.19-.56.29-.94.29h-2.41v8.29c0,.4-.12.72-.35.96-.23.24-.54.36-.93.36-.32,0-.59-.09-.81-.26-.23-.18-.37-.42-.43-.72-.02-.11-.03-.22-.02-.34v-8.29Z"/>
        <path class="cls-2" d="M31.13,31.07c.1-.29.26-.5.46-.62.2-.12.46-.19.78-.19h.61c.33,0,.61.07.83.2.22.13.4.39.53.77l3.07,8.9c.1.28.17.51.21.71.02.13.04.23.05.31,0,.33-.12.59-.36.82-.23.23-.51.34-.84.34-.59,0-.97-.24-1.14-.73l-.66-1.94h-4.1l-.66,1.94c-.16.48-.54.73-1.14.73-.3,0-.55-.07-.75-.23-.2-.15-.33-.38-.39-.66-.02-.08-.02-.17-.02-.27,0-.13.02-.29.07-.47.05-.18.11-.37.17-.55l3.29-9.06ZM32.67,33.13h-.03l-1.5,4.67h2.98l-1.45-4.67Z"/>
        <path class="cls-2" d="M38.06,31.58c0-.39.12-.71.35-.96.23-.24.54-.36.93-.36.32,0,.59.09.81.26.22.18.37.42.43.72.02.11.03.22.02.34v8.29s4.25,0,4.25,0c.34,0,.63.08.86.23.23.15.38.37.43.65.02.07.03.16.04.25,0,.35-.13.63-.38.82-.25.19-.56.29-.95.29h-5.31c-.4,0-.71-.08-.96-.25-.25-.16-.4-.42-.48-.78-.03-.15-.05-.33-.05-.52v-8.97Z"/>
        <path class="cls-2" d="M46.43,31.58c0-.39.12-.71.35-.96.23-.24.54-.36.93-.36.32,0,.59.09.81.26.23.18.37.42.43.72.02.11.03.22.03.34v3.85s4-4.59,4-4.59c.18-.19.34-.34.48-.44.15-.09.32-.14.53-.14.28,0,.53.08.76.24.23.15.37.36.42.62,0,0,0,.05.02.1,0,.04,0,.08,0,.11,0,.18-.04.35-.12.48-.08.14-.18.28-.3.42l-2.61,2.86,3.09,4.9.09.15c.21.33.33.58.37.74,0,.01,0,.04.02.08,0,.04,0,.07,0,.08,0,.45-.13.78-.38.98-.26.2-.57.3-.92.3-.26,0-.47-.05-.64-.14-.16-.11-.33-.28-.5-.55l-2.93-4.72-1.4,1.45.02,2.64c0,.4-.12.72-.35.96-.23.24-.54.36-.93.36-.32,0-.59-.09-.82-.26-.22-.18-.37-.42-.43-.72-.02-.11-.03-.22-.02-.34v-9.41Z"/>
      </g>
    </g>
  </g>
</svg>