<?xml version="1.0" encoding="UTF-8"?>
<svg id="_레이어_2" data-name="레이어 2" xmlns="http://www.w3.org/2000/svg" viewBox="0 0 186.4 41.49">
  <defs>
    <style>
      .cls-1 {
        fill: #e8d69c;
        stroke-width: 0px;
      }
    </style>
  </defs>
  <g id="Layer_1" data-name="Layer 1">
    <g>
      <polygon class="cls-1" points="21.1 .12 33.21 .12 33.21 6.42 30.02 6.42 19.44 17.09 30.73 35.18 33.21 35.18 33.21 41.49 21.1 41.49 21.1 35.18 23.23 35.18 14.83 21.75 9.22 27.4 9.22 35.18 12.12 35.18 12.12 41.49 0 41.49 0 35.18 2.9 35.18 2.9 6.42 0 6.42 0 .12 12.12 .12 12.12 6.42 9.22 6.42 9.22 18.39 21.1 6.42 21.1 .12"/>
      <rect class="cls-1" x="32.74" y="17.5" width="6.86" height="6.37"/>
      <polygon class="cls-1" points="69.62 .06 74.94 4.83 74.94 12.02 68.62 12.02 68.62 7.66 67.14 6.42 51.9 6.42 50.48 7.66 50.48 33.83 51.9 35.12 67.14 35.12 68.62 33.83 68.62 29.47 74.94 29.47 74.94 36.66 69.62 41.49 49.47 41.49 44.09 36.66 44.09 4.83 49.47 .06 69.62 .06"/>
      <polygon class="cls-1" points="100.77 .06 112.88 .06 112.88 6.42 109.99 6.42 109.99 35.12 112.88 35.12 112.88 41.49 100.77 41.49 100.77 35.12 103.67 35.12 103.67 23.93 88.89 23.93 88.89 35.12 91.79 35.12 91.79 41.49 79.67 41.49 79.67 35.12 82.57 35.12 82.57 6.42 79.67 6.42 79.67 .06 91.79 .06 91.79 6.42 88.89 6.42 88.89 17.62 103.67 17.62 103.67 6.42 100.77 6.42 100.77 .06"/>
      <polygon class="cls-1" points="138.71 .06 150.82 .06 150.82 6.42 147.93 6.42 147.93 36.72 142.61 41.49 125.88 41.49 120.51 36.72 120.51 6.42 117.61 6.42 117.61 .06 129.73 .06 129.73 6.42 126.89 6.42 126.89 33.88 128.31 35.12 128.37 35.12 140.07 35.12 140.13 35.12 141.6 33.88 141.6 6.42 138.71 6.42 138.71 .06"/>
      <path class="cls-1" d="M181.02,0l5.38,4.83v14.26l-5.38,4.83h-16.25v11.19h2.84v6.37h-12.06v-6.37h2.84V6.36h-2.84V0h25.47ZM180.02,7.66l-1.42-1.3h-13.83v11.2h13.83l1.42-1.29V7.66Z"/>
    </g>
  </g>
</svg>